<svg version="1.2" xmlns="http://www.w3.org/2000/svg" viewBox="0 0 500 190" width="500" height="190">
	<path d="m474.6 97.4c-6.2-1.2-13.9-10.1-13.9-10.1 17.7 1.6 22.1 5.3 22.1 5.3 0 0-1.9 5.9-8.2 4.8z"/>
	<path fill-rule="evenodd" d="m8.2 97c7.5-8.4-5.6-33.5 2.1-42.4 7.7-9 43.8-24.4 43.8-24.4l-5.2-10.4c160.3-29.6 214.6-9.6 
		228.8-5.8 14.2 3.8 70.4 34.2 70.4 34.2 140.4 10.3 142.7 40.6 142.7 40.6 9.7 5.9 6.1 27.4 6.1 27.4 0 0 0 11.5-3.3 25.9-3.3 
		14.3-46.2 15.8-46.2 15.8 0 0 10.8-60.6-42.3-61.1-53-0.5-50.1 59.6-50.1 59.6h-226.5c0 0 7.9-57.1-45.7-57.1-53.6 0-46.4 52.5-46.4 
		52.5l-28.7-9.2c-10.7-19.6-6.9-37.1 0.5-45.6zm5.3-19.3c5 6.5 21.2 1.4 33.2-3.9 11.9-5.3 4.7-5.2 4.7-5.2-26.5 0.3-41-7.7-41-7.7 
		0 0-2 10.3 3.1 16.8zm53.4-39.5l-11.5-10.9 2.2 5.5c-40.5 15.3-46.6 25.2-46.6 25.2 0 0 49.6-13.9 53.8-16 4.3-2.1 2.1-3.8 
		2.1-3.8zm23.1 4.4c-3.7 5.7-15.8 10.8-4.2 10.9 11.5 0.2 215.5 13.1 215.5 13.1l-1.5-3.1-201.1-12.3c0 0-4.6 0.6-2.5-3.1 2-3.8 
		7.1-8.5-4.9-13-12-4.4 0-5.5 0-5.5 0 0 145.6-44.6 246.1 35.8-1.6-2-69.5-84.6-260.5-35.8 0 0 16.8 7.2 13.1 13zm25.8 29.1c0 1.2 
		1 2.1 2.2 2.1h19.2c1.2 0 2.1-0.9 2.1-2.1 0-1.2-0.9-2.1-2.1-2.1h-19.2c-1.2 0-2.2 0.9-2.2 2.1zm99.2 66.2c0.5-1.4 13.5-38.2-4.2-72.5 
		0 0 9.6 47.2 4.2 72.5zm13.6-64.1c0 1.2 1 2.1 2.1 2.1h19.3c1.1 0 2.1-0.9 2.1-2.1 0-1.2-1-2.1-2.1-2.1h-19.3c-1.1 0-2.1 
		0.9-2.1 2.1zm71-27.9c-33-19-86.5-24.2-86.5-24.2l8.3 33.6 75.4 4.8c-2.2-4.8 2.8-14.2 2.8-14.2zm-101.9 9.4l-3.3-34c-20.5-2.5-65 
		3.1-65 3.1l1.2 26.5zm-71.2-5.8l-0.9-23.8-14.4 1.5-9.3 22.3zm177.1 13.1l16.4-1.7c0 0-14.4-2-17.2-5.1 0 0-2.8 4 0.8 
		6.8zm-120.5-55.5c-65.8-0.3-90.4 11.1-90.4 11.1 70.4-12.3 148.8-4.6 165.7 0 17 4.6 19.3 0 19.3 0 0 0-28.9-10.8-94.6-11.1zm164.6 
		43.1c-6.1-3.8-67.2-33.8-65.7-32.5 1.6 1.3-4.3 5.4-4.3 5.4 8.9 2.9 51 28.1 63.8 30.9 12.8 2.9 6.2-3.8 6.2-3.8zm-3.1 19.4c0.4 1.6 
		7.1 32.9 3.5 58.4 0 0 8-32.3-3.5-58.4zm19.7-10.4l10 14.6c0 0 61.8-4 83.2 1.8-9.3-2.6-71.1-19.6-93.2-16.4zm72.8 22.5c-4.8 0.8 39.8 
		24.4 43.3 19.6 3.4-4.8 7.5-7.9 7.5-7.9-7.9-11.1-46-12.4-50.8-11.7zm55.8 41.7c0 0-6.9-2.7-10.1 1.7-3.2 4.4-4.7 9.4-4.7 
		9.4h11zm-481.5 16.5l20.9 6c0 0-3.6-52.9 50.3-50.1 53.8 2.8 50.2 57 50.2 57h218.4c0 0 0.4-59.3 53.2-58.3 52.8 1 46.2 56.5 
		46.4 59.9 0.3 3.3 41.3-3.4 38.2-16.4l-31.3 0.3c0 0-2-45.9-54.8-48.4-52.9-2.6-54.4 58.8-54.4 58.8l-209.2-6.1c0 
		0-7.7-44.9-47.7-51-40-6.2-56.2 18-60.8 35.3l-20-1.7c0 0-2.3-14.8-6.9-15.4 0 0-1.2 24.9 7.5 30.1z"/>
	<path d="m482.8 92.6c0 0-1.9 5.9-8.2 4.8-6.2-1.2-13.9-10.1-13.9-10.1 17.7 1.6 22.1 5.3 22.1 5.3z"/>
	<path d="m482.8 92.6c0 0-1.9 5.9-8.2 4.8-6.2-1.2-13.9-10.1-13.9-10.1 17.7 1.6 22.1 5.3 22.1 5.3z"/>
	<path fill-rule="evenodd" d="m80.6 114.6c17 0 30.7 13.7 30.7 30.5 0 16.9-13.7 30.6-30.7 30.6-16.9 0-30.6-13.7-30.6-30.6 0-16.8 
		13.7-30.5 30.6-30.5zm-9.9 6.6l10 16.9 8.2-16.9c-7.4-6.2-18.2 0-18.2 0zm6.4 23.9c0 2.3 1.9 4.1 4.2 4.1 2.3 0 4.1-1.8 4.1-4.1 
		0-2.2-1.8-4-4.1-4-2.3 0-4.2 1.8-4.2 4zm21.7-19.1l-10.5 16.6 18.9-0.5c2.1-9.3-8.4-16.1-8.4-16.1zm7 24.7l-19.6-0.5 10.1 15.9c9.1-3 
		9.5-15.4 9.5-15.4zm-16.1 19.7l-9.5-17.1-8.6 16.7c7.2 6.4 18.1 0.4 18.1 0.4zm-25.3-4l10.5-16.6-18.9 0.5c-2.1 9.4 8.4 16.1 8.4 
		16.1zm9.6-24.3l-12.1-14.4c-8.7 4.2-7.4 16.6-7.4 16.6z"/>
	<path fill-rule="evenodd" d="m81.3 103.6c23.5 0 42.6 19 42.6 42.4 0 23.4-19.1 42.4-42.6 42.4-23.6 0-42.7-19-42.7-42.4 0-23.4 
		19.1-42.4 42.7-42.4zm-34.4 41.5c0 18.6 15.1 33.6 33.8 33.6 18.6 0 33.7-15 33.7-33.6 0-18.5-15.1-33.5-33.7-33.5-18.7 0-33.8 15-33.8 
		33.5z"/>
	<path fill-rule="evenodd" d="m80.6 114.6c17 0 30.7 13.7 30.7 30.5 0 16.9-13.7 30.6-30.7 30.6-16.9 0-30.6-13.7-30.6-30.6 0-16.8 
		13.7-30.5 30.6-30.5zm-9.9 6.6l10 16.9 8.2-16.9c-7.4-6.2-18.2 0-18.2 0zm6.4 23.9c0 2.3 1.9 4.1 4.2 4.1 2.3 0 4.1-1.8 4.1-4.1 
		0-2.2-1.8-4-4.1-4-2.3 0-4.2 1.8-4.2 4zm21.7-19.1l-10.5 16.6 18.9-0.5c2.1-9.3-8.4-16.1-8.4-16.1zm7 24.7l-19.6-0.5 10.1 15.9c9.1-3 
		9.5-15.4 9.5-15.4zm-16.1 19.7l-9.5-17.1-8.6 16.7c7.2 6.4 18.1 0.4 18.1 0.4zm-25.3-4l10.5-16.6-18.9 0.5c-2.1 9.4 8.4 16.1 8.4 
		16.1zm9.6-24.3l-12.1-14.4c-8.7 4.2-7.4 16.6-7.4 16.6z"/>
	<path fill-rule="evenodd" d="m80.6 114.6c17 0 30.7 13.7 30.7 30.5 0 16.9-13.7 30.6-30.7 30.6-16.9 0-30.6-13.7-30.6-30.6 0-16.8 
		13.7-30.5 30.6-30.5zm-9.9 6.6l10 16.9 8.2-16.9c-7.4-6.2-18.2 0-18.2 0zm6.4 23.9c0 2.3 1.9 4.1 4.2 4.1 2.3 0 4.1-1.8 4.1-4.1 
		0-2.2-1.8-4-4.1-4-2.3 0-4.2 1.8-4.2 4zm21.7-19.1l-10.5 16.6 18.9-0.5c2.1-9.3-8.4-16.1-8.4-16.1zm7 24.7l-19.6-0.5 10.1 15.9c9.1-3 
		9.5-15.4 9.5-15.4zm-16.1 19.7l-9.5-17.1-8.6 16.7c7.2 6.4 18.1 0.4 18.1 0.4zm-25.3-4l10.5-16.6-18.9 0.5c-2.1 9.4 8.4 16.1 8.4 
		16.1zm9.6-24.3l-12.1-14.4c-8.7 4.2-7.4 16.6-7.4 16.6z"/>
	<path fill-rule="evenodd" d="m400.7 114.6c16.9 0 30.6 13.7 30.6 30.5 0 16.9-13.7 30.6-30.6 30.6-17 0-30.7-13.7-30.7-30.6 0-16.8 
		13.7-30.5 30.7-30.5zm-10 6.6l10 16.9 8.2-16.9c-7.4-6.2-18.2 0-18.2 0zm6.4 23.9c0 2.3 1.9 4.1 4.2 4.1 2.3 0 4.1-1.8 4.1-4.1 
		0-2.2-1.8-4-4.1-4-2.3 0-4.2 1.8-4.2 4zm21.7-19.1l-10.5 16.6 18.9-0.5c2.1-9.3-8.4-16.1-8.4-16.1zm7.1 24.7l-19.7-0.5 10.1 15.9c9.1-3 
		9.6-15.4 9.6-15.4zm-16.1 19.7l-9.6-17.1-8.6 16.7c7.2 6.4 18.2 0.4 18.2 0.4zm-25.4-4l10.5-16.6-18.9 0.5c-2.1 9.4 8.4 16.1 8.4 
		16.1zm9.6-24.3l-12.1-14.4c-8.7 4.2-7.4 16.6-7.4 16.6z"/>
	<path fill-rule="evenodd" d="m401.3 103.6c23.5 0 42.6 19 42.6 42.4 0 23.4-19.1 42.4-42.6 42.4-23.6 0-42.7-19-42.7-42.4 0-23.4 
		19.1-42.4 42.7-42.4zm-34.4 41.5c0 18.6 15.1 33.6 33.8 33.6 18.6 0 33.7-15 33.7-33.6 0-18.5-15.1-33.5-33.7-33.5-18.7 0-33.8 
		15-33.8 33.5z"/>
	<path fill-rule="evenodd" d="m400.7 114.6c16.9 0 30.6 13.7 30.6 30.5 0 16.9-13.7 30.6-30.6 30.6-17 0-30.7-13.7-30.7-30.6 0-16.8 
		13.7-30.5 30.7-30.5zm-10 6.6l10 16.9 8.2-16.9c-7.4-6.2-18.2 0-18.2 0zm6.4 23.9c0 2.3 1.9 4.1 4.2 4.1 2.3 0 4.1-1.8 4.1-4.1 
		0-2.2-1.8-4-4.1-4-2.3 0-4.2 1.8-4.2 4zm21.7-19.1l-10.5 16.6 18.9-0.5c2.1-9.3-8.4-16.1-8.4-16.1zm7.1 24.7l-19.7-0.5 10.1 15.9c9.1-3 
		9.6-15.4 9.6-15.4zm-16.1 19.7l-9.6-17.1-8.6 16.7c7.2 6.4 18.2 0.4 18.2 0.4zm-25.4-4l10.5-16.6-18.9 0.5c-2.1 9.4 8.4 16.1 8.4 
		16.1zm9.6-24.3l-12.1-14.4c-8.7 4.2-7.4 16.6-7.4 16.6z"/>
	<path fill-rule="evenodd" d="m400.7 114.6c16.9 0 30.6 13.7 30.6 30.5 0 16.9-13.7 30.6-30.6 30.6-17 0-30.7-13.7-30.7-30.6 0-16.8 
		13.7-30.5 30.7-30.5zm-10 6.6l10 16.9 8.2-16.9c-7.4-6.2-18.2 0-18.2 0zm6.4 23.9c0 2.3 1.9 4.1 4.2 4.1 2.3 0 4.1-1.8 4.1-4.1 
		0-2.2-1.8-4-4.1-4-2.3 0-4.2 1.8-4.2 4zm21.7-19.1l-10.5 16.6 18.9-0.5c2.1-9.3-8.4-16.1-8.4-16.1zm7.1 24.7l-19.7-0.5 10.1 15.9c9.1-3 
		9.6-15.4 9.6-15.4zm-16.1 19.7l-9.6-17.1-8.6 16.7c7.2 6.4 18.2 0.4 18.2 0.4zm-25.4-4l10.5-16.6-18.9 0.5c-2.1 9.4 8.4 16.1 8.4 
		16.1zm9.6-24.3l-12.1-14.4c-8.7 4.2-7.4 16.6-7.4 16.6z"/>
</svg>